<svg width="45" height="45" viewBox="0 0 45 45" fill="none" xmlns="http://www.w3.org/2000/svg">
<g clip-path="url(#clip0_80_712)">
<path d="M43.125 15C43.125 17.0625 41.4375 18.75 39.375 18.75C39.0375 18.75 38.7188 18.7125 38.4188 18.6188L31.7438 25.275C31.8375 25.575 31.875 25.9125 31.875 26.25C31.875 28.3125 30.1875 30 28.125 30C26.0625 30 24.375 28.3125 24.375 26.25C24.375 25.9125 24.4125 25.575 24.5062 25.275L19.725 20.4938C19.425 20.5875 19.0875 20.625 18.75 20.625C18.4125 20.625 18.075 20.5875 17.775 20.4938L9.24375 29.0437C9.3375 29.3438 9.375 29.6625 9.375 30C9.375 32.0625 7.6875 33.75 5.625 33.75C3.5625 33.75 1.875 32.0625 1.875 30C1.875 27.9375 3.5625 26.25 5.625 26.25C5.9625 26.25 6.28125 26.2875 6.58125 26.3812L15.1312 17.85C15.0375 17.55 15 17.2125 15 16.875C15 14.8125 16.6875 13.125 18.75 13.125C20.8125 13.125 22.5 14.8125 22.5 16.875C22.5 17.2125 22.4625 17.55 22.3688 17.85L27.15 22.6312C27.45 22.5375 27.7875 22.5 28.125 22.5C28.4625 22.5 28.8 22.5375 29.1 22.6312L35.7562 15.9563C35.6625 15.6563 35.625 15.3375 35.625 15C35.625 12.9375 37.3125 11.25 39.375 11.25C41.4375 11.25 43.125 12.9375 43.125 15Z" fill="#363636"/>
</g>
<defs>
<clipPath id="clip0_80_712">
<rect width="45" height="45" fill="white"/>
</clipPath>
</defs>
</svg>
