<svg width="30" height="31" viewBox="0 0 30 31" fill="none" xmlns="http://www.w3.org/2000/svg">
<path d="M30 15.4054C30 23.9155 23.2837 30.8108 15 30.8108C6.71631 30.8108 0 23.9155 0 15.4054C0 6.90032 6.71631 0 15 0C23.2837 0 30 6.90032 30 15.4054ZM15 18.5113C13.4634 18.5113 12.2177 19.7907 12.2177 21.3688C12.2177 22.9469 13.4634 24.2262 15 24.2262C16.5366 24.2262 17.7823 22.9469 17.7823 21.3688C17.7823 19.7907 16.5366 18.5113 15 18.5113ZM12.3585 8.24028L12.8072 16.6884C12.8281 17.0837 13.1464 17.3932 13.5319 17.3932H16.4681C16.8536 17.3932 17.1719 17.0837 17.1928 16.6884L17.6415 8.24028C17.6642 7.81327 17.3332 7.45423 16.9168 7.45423H13.0831C12.6668 7.45423 12.3358 7.81327 12.3585 8.24028Z" fill="white"/>
</svg>
