<svg width="36" height="36" viewBox="0 0 36 36" fill="none" xmlns="http://www.w3.org/2000/svg">
<path d="M33.1281 0.634277H13.0255C11.6435 0.634277 10.5127 1.81976 10.5127 3.26869V24.344C10.5127 25.7929 11.6435 26.9784 13.0255 26.9784H33.1281C34.5101 26.9784 35.6409 25.7929 35.6409 24.344V3.26869C35.6409 1.81976 34.5101 0.634277 33.1281 0.634277ZM13.0255 3.26869H18.0512V16.4407H13.0255V3.26869ZM13.0255 24.344V19.0751H18.0512V24.344H13.0255ZM33.1281 24.344H20.564V11.1719H33.1281V24.344ZM33.1281 8.5375H20.564V3.26869H33.1281V8.5375Z" fill="white"/>
<path d="M5.5 25C2.46265 25 0 27.4635 0 30.5C0 33.5382 2.46265 36 5.5 36C8.53735 36 11 33.5382 11 30.5C11 27.4635 8.53735 25 5.5 25ZM5.5 27.4395C6.01443 27.4395 6.43145 27.8565 6.43145 28.371C6.43145 28.8854 6.01443 29.3024 5.5 29.3024C4.98557 29.3024 4.56855 28.8854 4.56855 28.371C4.56855 27.8565 4.98557 27.4395 5.5 27.4395ZM6.74194 33.0726C6.74194 33.2196 6.62278 33.3387 6.47581 33.3387H4.52419C4.37722 33.3387 4.25806 33.2196 4.25806 33.0726V32.5403C4.25806 32.3934 4.37722 32.2742 4.52419 32.2742H4.79032V30.8548H4.52419C4.37722 30.8548 4.25806 30.7357 4.25806 30.5887V30.0565C4.25806 29.9095 4.37722 29.7903 4.52419 29.7903H5.94355C6.09052 29.7903 6.20968 29.9095 6.20968 30.0565V32.2742H6.47581C6.62278 32.2742 6.74194 32.3934 6.74194 32.5403V33.0726Z" fill="white"/>
</svg>
