<svg width="21" height="21" viewBox="0 0 21 21" fill="none" xmlns="http://www.w3.org/2000/svg">
<path d="M19.284 12.5147C18.1828 10.6063 18.8443 8.16113 20.7632 7.04944L18.6999 3.4755C18.1106 3.82069 17.4242 4.01888 16.6931 4.01888C14.4881 4.01888 12.7005 2.21944 12.7005 0H8.57267C8.57792 0.685125 8.40729 1.37944 8.03979 2.01469C6.9386 3.92306 4.48817 4.57144 2.56667 3.46631L0.503418 7.04025C1.09798 7.37756 1.61248 7.87238 1.97736 8.50631C3.07723 10.4121 2.41836 12.852 0.507355 13.9663L2.57061 17.5403C3.15861 17.1977 3.83979 17.0021 4.56823 17.0021C6.76667 17.0021 8.54904 18.7897 8.56086 21H12.6887C12.6874 20.3214 12.858 19.635 13.2215 19.0063C14.3214 17.1006 16.7653 16.4509 18.6855 17.5494L20.7487 13.9755C20.1581 13.6382 19.6475 13.1447 19.284 12.5147ZM10.6346 14.7525C8.28654 14.7525 6.38211 12.8494 6.38211 10.5C6.38211 8.15063 8.28523 6.2475 10.6346 6.2475C12.9827 6.2475 14.8871 8.15063 14.8871 10.5C14.8871 12.8494 12.984 14.7525 10.6346 14.7525Z" fill="#299CDB"/>
</svg>
